
nColumns=19
nRows=32
DataType=double
version=3
OpenSimVersion=4.4-2022-10-11-798caa840
endheader
time	ground_force_calcn_r_vx	ground_force_calcn_r_vy	ground_force_calcn_r_vz	ground_force_calcn_r_px	ground_force_calcn_r_py	ground_force_calcn_r_pz	ground_force_calcn_r_mx	ground_force_calcn_r_my	ground_force_calcn_r_mz	ground_force_calcn_l_vx	ground_force_calcn_l_vy	ground_force_calcn_l_vz	ground_force_calcn_l_px	ground_force_calcn_l_py	ground_force_calcn_l_pz	ground_force_calcn_l_mx	ground_force_calcn_l_my	ground_force_calcn_l_mz
1.02	-86.19370000000001	547.644	-76.7403	-0.310163	0	-0.491313	0.118852	-0.755144	0.105817	0	0	0	0	0	0	0	0	0
1.03	-234.343	1571.18	-73.9221	-0.295765	0	-0.497361	0.400825	-2.68737	0.126438	0	0	0	0	0	0	0	0	0
1.04	-265.109	1516.66	57.9284	-0.29068	0	-0.504763	-0.413149	2.36359	0.09027640000000001	0	0	0	0	0	0	0	0	0
1.05	-232.927	781.032	13.1994	-0.277325	0	-0.504027	-0.614815	2.06155	0.03484	0	0	0	0	0	0	0	0	0
1.06	-278.827	422.867	-60.9676	-0.235712	0	-0.491544	-0.308133	0.467312	-0.0673755	-72.07389999999999	96.0877	29.7666	-0.215612	0	-0.747991	0.178865	-0.238459	-0.0738712
1.07	-319.396	495.345	-67.35760000000001	-0.225295	0	-0.492386	-0.6593599999999999	1.02259	-0.139053	-162.897	437.312	62.2783	-0.25293	0	-0.747895	-0.100733	0.270426	0.0385118
1.08	-268.003	714.331	-58.6956	-0.242882	0	-0.496079	0.008680210000000001	-0.0231362	0.00190107	-18.7335	520.36	-1.02469	-0.276316	0	-0.736141	-0.0380821	1.05781	-0.00208303
1.09	-206.588	817.999	-33.6221	-0.249685	0	-0.498734	0.487885	-1.93181	0.079403	22.1954	378.244	-27.8441	-0.275215	0	-0.727595	0.128653	2.19245	-0.161396
1.1	-180.391	798.275	-29.5422	-0.24837	0	-0.49886	0.658449	-2.9138	0.107833	-55.1007	285.463	-4.13651	-0.24283	0	-0.732708	-0.436195	2.25982	-0.032746
1.11	-151.942	791.1079999999999	-28.5302	-0.248951	0	-0.499083	0.70143	-3.65209	0.131707	-103.964	255.769	2.70793	-0.213503	0	-0.734114	-0.413753	1.0179	0.010777
1.12	-124.276	788.083	-22.2683	-0.249511	0	-0.499469	0.754356	-4.78368	0.135169	-115.555	273.465	1.55053	-0.205691	0	-0.733341	-0.383749	0.908159	0.00514919
1.13	-114.224	740.524	-15.2834	-0.245409	0	-0.498916	0.9288689999999999	-6.02193	0.124284	-112.235	331.448	7.31806	-0.212469	0	-0.733928	-0.317745	0.938354	0.0207179
1.14	-114.648	673.454	-5.71461	-0.239341	0	-0.498101	1.18398	-6.95484	0.0590155	-91.0521	411.509	21.538	-0.224222	0	-0.735728	-0.21936	0.9913960000000001	0.0518889
1.15	-100.527	644.838	-1.39666	-0.237932	0	-0.497784	1.10245	-7.07174	0.0153167	-58.0581	494.355	33.2847	-0.234949	0	-0.737089	-0.145666	1.24032	0.08351020000000001
1.16	-73.765	654.9880000000001	-5.52557	-0.240668	0	-0.497246	0.7446199999999999	-6.61177	0.0557778	-35.121	552.318	36.6093	-0.240582	0	-0.7377860000000001	-0.09558700000000001	1.50321	0.09963760000000001
1.17	-52.328	678.439	-7.04891	-0.243129	0	-0.496854	0.494301	-6.40867	0.0665854	-35.4133	552.929	38.4948	-0.238997	0	-0.738749	-0.102266	1.59675	0.111165
1.18	-41.1886	706.425	-3.64951	-0.244395	0	-0.496838	0.380786	-6.53085	0.0337394	-47.3802	519.026	39.1362	-0.233007	0	-0.739904	-0.155745	1.70611	0.128646
1.19	-34.4665	728.048	-1.98181	-0.244828	0	-0.496506	0.303159	-6.40375	0.0174315	-51.6269	488.021	40.0247	-0.227746	0	-0.740897	-0.21949	2.07481	0.170164
1.2	-27.9739	738.9690000000001	-2.76683	-0.24471	0	-0.495906	0.227869	-6.01948	0.022538	-50.2528	474.684	37.4537	-0.224916	0	-0.740889	-0.305543	2.88614	0.227723
1.21	-23.1212	737.998	-4.29259	-0.243888	0	-0.495408	0.172847	-5.51704	0.03209	-47.6173	484.005	33.2714	-0.224292	0	-0.740079	-0.383021	3.89321	0.267626
1.22	-21.6705	728.013	-3.79275	-0.242198	0	-0.495532	0.152585	-5.12605	0.0267053	-41.3619	507.135	30.181	-0.225236	0	-0.739211	-0.381812	4.68137	0.278601
1.23	-20.5574	719.691	0.934463	-0.240748	0	-0.49638	0.141964	-4.97	-0.00645316	-33.1706	528.9640000000001	29.0286	-0.226354	0	-0.738665	-0.327046	5.21534	0.286209
1.24	-16.7617	713.976	5.48402	-0.240013	0	-0.497359	0.112307	-4.7838	-0.0367442	-27.9062	538.308	30.5089	-0.226043	0	-0.738726	-0.285813	5.5133	0.312469
1.25	-11.9265	705.919	7.55207	-0.239615	0	-0.498115	0.0767383	-4.54208	-0.0485921	-26.9719	533.345	33.9399	-0.224095	0	-0.739376	-0.281675	5.56987	0.354444
1.26	-8.06256	694.716	9.43407	-0.23933	0	-0.498836	0.0513022	-4.42049	-0.0600291	-26.5464	525.722	38.081	-0.222026	0	-0.740156	-0.279335	5.53191	0.400707
1.27	-7.01631	679.319	12.1164	-0.238706	0	-0.499775	0.0472563	-4.57536	-0.0816065	-23.9024	523.5650000000001	42.3695	-0.220799	0	-0.740827	-0.249145	5.45733	0.441634
1.28	-8.88936	660.1420000000001	13.848	-0.237434	0	-0.500566	0.0654626	-4.86139	-0.101979	-20.533	523.576	45.6062	-0.219942	0	-0.7414269999999999	-0.209877	5.35171	0.466162
1.29	-12.8869	641.275	14.4535	-0.235575	0	-0.500845	0.100306	-4.99143	-0.1125	-16.265	521.766	47.4543	-0.218942	0	-0.741825	-0.165713	5.31592	0.48348
1.3	-18.234	623.276	12.9096	-0.233011	0	-0.5001139999999999	0.143827	-4.91629	-0.101829	-11.2242	519.365	49.1519	-0.217435	0	-0.7422339999999999	-0.115318	5.33599	0.504989
1.31	-23.1578	606.192	10.4569	-0.230033	0	-0.498902	0.17959	-4.70106	-0.0810939	-7.92353	517.244	50.637	-0.21528	0	-0.742375	-0.083789	5.46971	0.535471
1.32	-27.5781	591.106	8.19248	-0.226653	0	-0.497351	0.207651	-4.45078	-0.0616859	-7.26835	515.241	50.6355	-0.212709	0	-0.7420870000000001	-0.0810129	5.74287	0.5643820000000001
1.33	-33.1183	576.986	6.02009	-0.222549	0	-0.495631	0.244188	-4.25423	-0.0443873	-8.761430000000001	513.2089999999999	49.6026	-0.209833	0	-0.741561	-0.103847	6.08292	0.5879259999999999
